<svg xmlns="http://www.w3.org/2000/svg" viewBox="0 0 400 300" role="img" aria-labelledby="t5"><title id="t5">Ghungroo — small bells that adorn pallu borders and anklets</title>
  <defs>
    <linearGradient id="gBg" x1="0" y1="0" x2="0" y2="1">
      <stop offset="0%" stop-color="#1e2d4a"/>
      <stop offset="100%" stop-color="#0f1728"/>
    </linearGradient>
    <radialGradient id="bellG" cx="30%" cy="30%" r="70%">
      <stop offset="0%" stop-color="#fff8e7"/>
      <stop offset="50%" stop-color="#f4c573"/>
      <stop offset="100%" stop-color="#8b5a2b"/>
    </radialGradient>
  </defs>
  <rect width="400" height="300" fill="url(#gBg)"/>
  <!-- Horizontal bell border -->
  <g stroke="#c84b31" stroke-width="1.5" fill="none">
    <path d="M20 60 Q 200 55 380 60"/>
    <path d="M20 60 Q 200 65 380 60"/>
  </g>
  <!-- Bells hanging from the string -->
  <g>
    <g transform="translate(50 80)">
      <path d="M-10 -6 L 10 -6 L 8 4 Q 0 14 -8 4 Z" fill="url(#bellG)" stroke="#8b5a2b" stroke-width="0.8"/>
      <circle cx="0" cy="8" r="2.5" fill="#8b5a2b"/>
      <line x1="0" y1="-20" x2="0" y2="-6" stroke="#c84b31" stroke-width="1.2"/>
    </g>
    <g transform="translate(110 88)">
      <path d="M-10 -6 L 10 -6 L 8 4 Q 0 14 -8 4 Z" fill="url(#bellG)" stroke="#8b5a2b" stroke-width="0.8"/>
      <circle cx="0" cy="8" r="2.5" fill="#8b5a2b"/>
      <line x1="0" y1="-28" x2="0" y2="-6" stroke="#c84b31" stroke-width="1.2"/>
    </g>
    <g transform="translate(170 78)">
      <path d="M-10 -6 L 10 -6 L 8 4 Q 0 14 -8 4 Z" fill="url(#bellG)" stroke="#8b5a2b" stroke-width="0.8"/>
      <circle cx="0" cy="8" r="2.5" fill="#8b5a2b"/>
      <line x1="0" y1="-18" x2="0" y2="-6" stroke="#c84b31" stroke-width="1.2"/>
    </g>
    <g transform="translate(230 90)">
      <path d="M-10 -6 L 10 -6 L 8 4 Q 0 14 -8 4 Z" fill="url(#bellG)" stroke="#8b5a2b" stroke-width="0.8"/>
      <circle cx="0" cy="8" r="2.5" fill="#8b5a2b"/>
      <line x1="0" y1="-30" x2="0" y2="-6" stroke="#c84b31" stroke-width="1.2"/>
    </g>
    <g transform="translate(290 82)">
      <path d="M-10 -6 L 10 -6 L 8 4 Q 0 14 -8 4 Z" fill="url(#bellG)" stroke="#8b5a2b" stroke-width="0.8"/>
      <circle cx="0" cy="8" r="2.5" fill="#8b5a2b"/>
      <line x1="0" y1="-22" x2="0" y2="-6" stroke="#c84b31" stroke-width="1.2"/>
    </g>
    <g transform="translate(350 88)">
      <path d="M-10 -6 L 10 -6 L 8 4 Q 0 14 -8 4 Z" fill="url(#bellG)" stroke="#8b5a2b" stroke-width="0.8"/>
      <circle cx="0" cy="8" r="2.5" fill="#8b5a2b"/>
      <line x1="0" y1="-28" x2="0" y2="-6" stroke="#c84b31" stroke-width="1.2"/>
    </g>
  </g>
  <!-- Large focus bell cluster below -->
  <g transform="translate(200 210)">
    <g transform="translate(-50 0)">
      <path d="M-22 -14 L 22 -14 L 18 10 Q 0 34 -18 10 Z" fill="url(#bellG)" stroke="#8b5a2b" stroke-width="1.2"/>
      <circle cx="0" cy="18" r="5" fill="#8b5a2b"/>
      <line x1="0" y1="-40" x2="0" y2="-14" stroke="#e8a33d" stroke-width="2"/>
    </g>
    <g>
      <path d="M-22 -14 L 22 -14 L 18 10 Q 0 34 -18 10 Z" fill="url(#bellG)" stroke="#8b5a2b" stroke-width="1.2"/>
      <circle cx="0" cy="18" r="5" fill="#8b5a2b"/>
      <line x1="0" y1="-40" x2="0" y2="-14" stroke="#e8a33d" stroke-width="2"/>
    </g>
    <g transform="translate(50 0)">
      <path d="M-22 -14 L 22 -14 L 18 10 Q 0 34 -18 10 Z" fill="url(#bellG)" stroke="#8b5a2b" stroke-width="1.2"/>
      <circle cx="0" cy="18" r="5" fill="#8b5a2b"/>
      <line x1="0" y1="-40" x2="0" y2="-14" stroke="#e8a33d" stroke-width="2"/>
    </g>
  </g>
</svg>
